La Patagonia Rebelde is an 1974 Argentinian film based on true events regarding the revolutionary anarcho-syndicalist union FORA (Federación Obrera Regional Argentina) and the consequences of improving farm workers' conditions. 

The audio is in Argentinian with synced English subtitles that I've edited to be correct. These are both probably the best copies available on the internet. Also included is just the description found here so it can be read when downloaded from other trackers. For information about the FORA, articles can be found at Libcom (libertarian communist site from the UK) @ http://libcom.org/tags/fora

"Not whether we accomplish anarchism today, tomorrow or within ten centuries, but that we walk towards anarchism, today, tomorrow and always" - Errico Malatesta, anarcho-communist.

General
Complete name                    : Q:TorrentsLa.Patagonia.Rebelde.1974.DVDRIP.XVID (A)La.Patagonia.Rebelde.1974.DVDRIP.XVID (A).avi
Format                           : AVI
Format/Info                      : Audio Video Interleave
File size                        : 800 MiB
Duration                         : 1h 47mn
Overall bit rate                 : 1 045 Kbps
Writing application              : VirtualDubMod 1.5.4.1 (build 2178/release)
Writing library                  : VirtualDubMod build 2178/release

Video
ID                               : 0
Format                           : MPEG-4 Visual
Format profile                   : AdvancedSimple@L5
Format settings, BVOP            : Yes
Format settings, QPel            : No
Format settings, GMC             : No warppoints
Format settings, Matrix          : Custom
Codec ID                         : XVID
Codec ID/Hint                    : XviD
Duration                         : 1h 47mn
Bit rate                         : 910 Kbps
Width                            : 624 pixels
Height                           : 368 pixels
Display aspect ratio             : 1.696
Frame rate                       : 23.976 fps
Resolution                       : 24 bits
Colorimetry                      : 4:2:0
Scan type                        : Progressive
Bits/(Pixel*Frame)               : 0.165
Stream size                      : 697 MiB (87%)
Writing library                  : XviD 1.1.2 (UTC 2006-11-01)

Audio
ID                               : 1
Format                           : MPEG Audio
Format version                   : Version 1
Format profile                   : Layer 3
Codec ID                         : 55
Codec ID/Hint                    : MP3
Duration                         : 1h 47mn
Bit rate mode                    : Constant
Bit rate                         : 128 Kbps
Channel(s)                       : 2 channels
Sampling rate                    : 48.0 KHz
Resolution                       : 16 bits
Stream size                      : 98.0 MiB (12%)
Alignment                        : Aligned on interleaves
Interleave, duration             : 83 ms (2.00 video frames)
Interleave, preload duration     : 504 ms
Writing library                  : LAME3.97 
Encoding settings                : -m j -V 4 -q 2 -lowpass 17 -b 128